# xmcd
# 
# Track frame offsets:
#     150
#     11917
#     32925
#     49550
#     60907
#     78837
#     98442
#     111930
#     122480
#     137150
#     147812
#     160705
#     174207
#     185745
#     195270
#     209202
#     218530
#     231055
#     243795
#     253967
#     265905
#     278320
#     290440
#     302732
# 
# Disc length: 4188
# 
# Revision: 8
# Processed by: cddbd v1.5.2PL0 Copyright (c) Steve Scherf et al.
# Submitted via: fre:ac v1.0.17
# 
DISCID=46105a18
DTITLE=Elvis Presley - Elvis From The Heart (His Greatest Love Songs)
DYEAR=0
DGENRE=
TTITLE0=The Wonder Of You
TTITLE1=I Just Can't Help Beleve
TTITLE2=Always on my mind
TTITLE3=You don't have to say You love me
TTITLE4=Until its time for me to go
TTITLE5=Suspicious mind
TTITLE6=There goes my everything
TTITLE7=The girl of my best friend
TTITLE8=It's now or never
TTITLE9=Good luck charm
TTITLE10=Love letters
TTITLE11=Can't help falling in love
TTITLE12=Suspicion
TTITLE13=She's not you
TTITLE14=Are you lonesome tonight
TTITLE15=Wooden heart
TTITLE16=Love me tender
TTITLE17=Don't
TTITLE18=Loving you
TTITLE19=Now And Then There's a Fool Such as I
TTITLE20=Love me
TTITLE21=I want you, I need you, I Love You
TTITLE22=It's only love
TTITLE23=Unchained melody
EXTD=
EXTT0=
EXTT1=
EXTT2=
EXTT3=
EXTT4=
EXTT5=
EXTT6=
EXTT7=
EXTT8=
EXTT9=
EXTT10=
EXTT11=
EXTT12=
EXTT13=
EXTT14=
EXTT15=
EXTT16=
EXTT17=
EXTT18=
EXTT19=
EXTT20=
EXTT21=
EXTT22=
EXTT23=
PLAYORDER=
